<svg width="127" height="31" viewBox="0 0 127 31" fill="none" xmlns="http://www.w3.org/2000/svg">
<path d="M23.8782 8.91732L19.7601 23H15.9217L13.3543 13.1625L10.7869 23H6.92302L2.77956 8.91732H6.3892L8.88036 19.6446L11.5749 8.91732H15.337L17.9807 19.6191L20.4719 8.91732H23.8782ZM23.8718 15.9078C23.8718 14.4843 24.1514 13.2218 24.7107 12.1202C25.2869 11.0187 26.0579 10.1714 27.0239 9.57824C28.0068 8.98511 29.0999 8.68854 30.3031 8.68854C31.3538 8.68854 32.2689 8.90037 33.0484 9.32404C33.8449 9.74771 34.4804 10.2815 34.9549 10.9255V8.91732H38.5391V23H34.9549V20.941C34.4974 21.6019 33.8619 22.1527 33.0484 22.5933C32.2519 23.0169 31.3283 23.2288 30.2777 23.2288C29.0914 23.2288 28.0068 22.9237 27.0239 22.3137C26.0579 21.7036 25.2869 20.8478 24.7107 19.7462C24.1514 18.6278 23.8718 17.3483 23.8718 15.9078ZM34.9549 15.9587C34.9549 15.0944 34.7855 14.3572 34.4465 13.7471C34.1076 13.1201 33.65 12.6456 33.0738 12.3236C32.4977 11.9847 31.8791 11.8152 31.2182 11.8152C30.5573 11.8152 29.9472 11.9762 29.3879 12.2982C28.8287 12.6202 28.3711 13.0947 28.0153 13.7217C27.6763 14.3318 27.5069 15.0605 27.5069 15.9078C27.5069 16.7552 27.6763 17.5008 28.0153 18.1448C28.3711 18.7718 28.8287 19.2548 29.3879 19.5937C29.9641 19.9327 30.5742 20.1021 31.2182 20.1021C31.8791 20.1021 32.4977 19.9411 33.0738 19.6191C33.65 19.2802 34.1076 18.8057 34.4465 18.1956C34.7855 17.5686 34.9549 16.8229 34.9549 15.9587ZM44.5569 4.1892V23H40.9981V4.1892H44.5569ZM50.615 4.1892V23H47.0562V4.1892H50.615ZM66.2056 15.6536C66.2056 16.162 66.1718 16.6196 66.104 17.0263H55.8089C55.8936 18.0431 56.2495 18.8396 56.8765 19.4158C57.5035 19.992 58.2746 20.2801 59.1897 20.2801C60.5116 20.2801 61.4521 19.7123 62.0113 18.5769H65.8498C65.443 19.9327 64.6635 21.0511 63.5111 21.9324C62.3588 22.7966 60.9437 23.2288 59.266 23.2288C57.9102 23.2288 56.6901 22.9322 55.6055 22.3391C54.5379 21.729 53.699 20.8732 53.0889 19.7717C52.4958 18.6701 52.1992 17.3991 52.1992 15.9587C52.1992 14.5012 52.4958 13.2218 53.0889 12.1202C53.6821 11.0187 54.5124 10.1714 55.5801 9.57824C56.6477 8.98511 57.8764 8.68854 59.266 8.68854C60.6048 8.68854 61.7995 8.97663 62.8502 9.55282C63.9178 10.129 64.7398 10.9509 65.3159 12.0186C65.9091 13.0693 66.2056 14.2809 66.2056 15.6536ZM62.5197 14.6368C62.5028 13.7217 62.1723 12.993 61.5284 12.4507C60.8844 11.8915 60.0964 11.6118 59.1643 11.6118C58.2831 11.6118 57.5374 11.883 56.9273 12.4253C56.3342 12.9506 55.9699 13.6878 55.8343 14.6368H62.5197ZM71.9299 11.8406V18.6532C71.9299 19.1277 72.0401 19.4751 72.2604 19.6954C72.4976 19.8988 72.8874 20.0004 73.4297 20.0004H75.082V23H72.845C69.8455 23 68.3457 21.5426 68.3457 18.6278V11.8406H66.668V8.91732H68.3457V5.43478H71.9299V8.91732H75.082V11.8406H71.9299ZM76.3961 16.1366C76.3961 14.6961 76.6757 13.4506 77.2349 12.3999C77.7942 11.3322 78.5822 10.5188 79.599 9.95954C80.6158 9.38335 81.7767 9.09526 83.0815 9.09526C84.6576 9.09526 85.9879 9.51045 87.0725 10.3408C88.174 11.1543 88.9112 12.1965 89.284 13.4675V9.2732H89.767V23H89.284V18.8057C88.9112 20.0767 88.174 21.1274 87.0725 21.9578C85.9879 22.7712 84.6576 23.1779 83.0815 23.1779C81.7767 23.1779 80.6158 22.8983 79.599 22.3391C78.5822 21.7629 77.7942 20.9495 77.2349 19.8988C76.6757 18.8311 76.3961 17.5771 76.3961 16.1366ZM89.284 16.1366C89.284 14.8317 89.0129 13.6878 88.4706 12.7049C87.9452 11.705 87.2081 10.934 86.259 10.3917C85.327 9.83244 84.2678 9.55282 83.0815 9.55282C81.8275 9.55282 80.7344 9.81549 79.8024 10.3408C78.8872 10.8662 78.1755 11.6288 77.6671 12.6286C77.1587 13.6115 76.9045 14.7809 76.9045 16.1366C76.9045 17.4923 77.1587 18.6701 77.6671 19.67C78.1755 20.6529 78.8872 21.407 79.8024 21.9324C80.7344 22.4577 81.8275 22.7204 83.0815 22.7204C84.2678 22.7204 85.327 22.4492 86.259 21.9069C87.2081 21.3477 87.9452 20.5766 88.4706 19.5937C89.0129 18.5939 89.284 17.4415 89.284 16.1366ZM93.552 13.4675C93.9248 12.1965 94.6535 11.1543 95.7381 10.3408C96.8397 9.51045 98.1784 9.09526 99.7545 9.09526C101.059 9.09526 102.22 9.38335 103.237 9.95954C104.254 10.5188 105.042 11.3322 105.601 12.3999C106.16 13.4506 106.44 14.6961 106.44 16.1366C106.44 17.5771 106.16 18.8311 105.601 19.8988C105.042 20.9495 104.254 21.7629 103.237 22.3391C102.22 22.8983 101.059 23.1779 99.7545 23.1779C98.1784 23.1779 96.8397 22.7712 95.7381 21.9578C94.6535 21.1274 93.9248 20.0767 93.552 18.8057V29.4567H93.069V9.2732H93.552V13.4675ZM105.932 16.1366C105.932 14.7809 105.677 13.6115 105.169 12.6286C104.661 11.6288 103.94 10.8662 103.008 10.3408C102.093 9.81549 101.009 9.55282 99.7545 9.55282C98.5682 9.55282 97.5006 9.83244 96.5516 10.3917C95.6195 10.934 94.8823 11.705 94.34 12.7049C93.8147 13.6878 93.552 14.8317 93.552 16.1366C93.552 17.4415 93.8147 18.5939 94.34 19.5937C94.8823 20.5766 95.6195 21.3477 96.5516 21.9069C97.5006 22.4492 98.5682 22.7204 99.7545 22.7204C101.009 22.7204 102.093 22.4577 103.008 21.9324C103.94 21.407 104.661 20.6529 105.169 19.67C105.677 18.6701 105.932 17.4923 105.932 16.1366ZM109.589 13.4675C109.962 12.1965 110.691 11.1543 111.776 10.3408C112.877 9.51045 114.216 9.09526 115.792 9.09526C117.097 9.09526 118.258 9.38335 119.274 9.95954C120.291 10.5188 121.079 11.3322 121.639 12.3999C122.198 13.4506 122.477 14.6961 122.477 16.1366C122.477 17.5771 122.198 18.8311 121.639 19.8988C121.079 20.9495 120.291 21.7629 119.274 22.3391C118.258 22.8983 117.097 23.1779 115.792 23.1779C114.216 23.1779 112.877 22.7712 111.776 21.9578C110.691 21.1274 109.962 20.0767 109.589 18.8057V29.4567H109.106V9.2732H109.589V13.4675ZM121.969 16.1366C121.969 14.7809 121.715 13.6115 121.206 12.6286C120.698 11.6288 119.978 10.8662 119.046 10.3408C118.131 9.81549 117.046 9.55282 115.792 9.55282C114.606 9.55282 113.538 9.83244 112.589 10.3917C111.657 10.934 110.92 11.705 110.377 12.7049C109.852 13.6878 109.589 14.8317 109.589 16.1366C109.589 17.4415 109.852 18.5939 110.377 19.5937C110.92 20.5766 111.657 21.3477 112.589 21.9069C113.538 22.4492 114.606 22.7204 115.792 22.7204C117.046 22.7204 118.131 22.4577 119.046 21.9324C119.978 21.407 120.698 20.6529 121.206 19.67C121.715 18.6701 121.969 17.4923 121.969 16.1366Z" fill="#1E71FF"/>
</svg>
